HIERARCHY
ROOT Hips
{
	OFFSET -6.585965 91.663933 257.982513
	CHANNELS 6 Xposition Yposition Zposition Zrotation Yrotation Xrotation 
	JOINT LeftUpLeg
	{
		OFFSET 0.103457 1.857831 10.548505
		CHANNELS 3 Zrotation Yrotation Xrotation
		JOINT LeftLeg
		{
			OFFSET 43.500000 -0.000038 -0.000004
			CHANNELS 3 Zrotation Yrotation Xrotation
			JOINT LeftFoot
			{
				OFFSET 42.372208 0.000027 -0.000004
				CHANNELS 3 Zrotation Yrotation Xrotation
				JOINT LeftToe
				{
					OFFSET 17.300005 0.000002 0.000002
					CHANNELS 3 Zrotation Yrotation Xrotation
					End Site
					{
						OFFSET 0.000000 0.000000 0.000000
					}
				}
			}
		}
	}
	JOINT RightUpLeg
	{
		OFFSET 0.103462 1.857825 -10.548504
		CHANNELS 3 Zrotation Yrotation Xrotation
		JOINT RightLeg
		{
			OFFSET 43.500042 -0.000027 0.000011
			CHANNELS 3 Zrotation Yrotation Xrotation
			JOINT RightFoot
			{
				OFFSET 42.372265 -0.000015 0.000012
				CHANNELS 3 Zrotation Yrotation Xrotation
				JOINT RightToe
				{
					OFFSET 17.299988 -0.000007 0.000010
					CHANNELS 3 Zrotation Yrotation Xrotation
					End Site
					{
						OFFSET 0.000000 0.000000 0.000000
					}
				}
			}
		}
	}
	JOINT Spine
	{
		OFFSET 6.901970 -2.603737 0.000000
		CHANNELS 3 Zrotation Yrotation Xrotation
		JOINT Spine1
		{
			OFFSET 12.588099 0.000007 0.000001
			CHANNELS 3 Zrotation Yrotation Xrotation
			JOINT Spine2
			{
				OFFSET 12.343201 0.000001 0.000000
				CHANNELS 3 Zrotation Yrotation Xrotation
				JOINT Neck
				{
					OFFSET 25.832897 -0.000008 -0.000001
					CHANNELS 3 Zrotation Yrotation Xrotation
					JOINT Head
					{
						OFFSET 11.766607 0.000021 0.000000
						CHANNELS 3 Zrotation Yrotation Xrotation
						End Site
						{
							OFFSET 0.000000 0.000000 0.000000
						}
					}
				}
				JOINT LeftShoulder
				{
					OFFSET 19.745903 -1.480373 6.000104
					CHANNELS 3 Zrotation Yrotation Xrotation
					JOINT LeftArm
					{
						OFFSET 11.284125 -0.000018 -0.000023
						CHANNELS 3 Zrotation Yrotation Xrotation
						JOINT LeftForeArm
						{
							OFFSET 33.000050 0.000010 0.000034
							CHANNELS 3 Zrotation Yrotation Xrotation
							JOINT LeftHand
							{
								OFFSET 25.200010 0.000001 -0.000001
								CHANNELS 3 Zrotation Yrotation Xrotation
								End Site
								{
									OFFSET 0.000000 0.000000 0.000000
								}
							}
						}
					}
				}
				JOINT RightShoulder
				{
					OFFSET 19.746090 -1.480381 -6.000076
					CHANNELS 3 Zrotation Yrotation Xrotation
					JOINT RightArm
					{
						OFFSET 11.284138 -0.000019 -0.000020
						CHANNELS 3 Zrotation Yrotation Xrotation
						JOINT RightForeArm
						{
							OFFSET 33.000092 0.000024 0.000022
							CHANNELS 3 Zrotation Yrotation Xrotation
							JOINT RightHand
							{
								OFFSET 25.199774 0.000133 0.000423
								CHANNELS 3 Zrotation Yrotation Xrotation
								End Site
								{
									OFFSET 0.000000 0.000000 0.000000
								}
							}
						}
					}
				}
			}
		}
	}
}
MOTION
Frames: 12
Frame Time: 0.033333
-113.932800 45.600391 112.058197 58.853302 17.929397 -172.859015 90.931879 -24.598093 176.975939 -145.307616 4.394496 -4.632655 92.663879 1.837154 -7.278787 21.454545 0.003094 0.000004 93.780259 18.798294 -173.415935 -136.616406 -4.491599 0.443949 92.927012 0.169198 0.478287 21.454555 -0.003109 -0.000017 17.042082 2.088909 1.455034 24.140885 3.828553 3.315505 23.822598 3.848629 3.292346 3.561782 2.142126 -0.982201 -44.394990 11.193289 -7.869966 56.052900 -76.747687 123.023277 -57.900982 -12.368778 -18.731903 -27.958191 -19.798847 1.497497 -4.490607 -16.087402 11.242902 75.061013 61.740525 -105.528690 -76.116987 -2.145902 35.239613 -44.056315 20.365136 -1.950936 36.755037 30.136024 33.420846 
-116.601303 41.465988 115.993698 65.423397 18.166794 -168.880990 90.437449 -24.571788 -175.225935 -150.112695 3.906621 -2.494107 99.272804 0.745172 -7.131131 21.454555 0.003092 0.000000 94.982373 18.850294 -169.602504 -143.646009 -4.907742 2.286186 95.981083 -1.005537 0.814107 21.454558 -0.003107 -0.000015 17.537218 1.719409 1.336714 25.112280 3.108154 3.015411 24.794162 3.126434 2.996612 1.177441 2.808076 -1.747102 -43.960931 10.929670 -8.216534 55.074172 -76.063541 124.048912 -58.734409 -13.516595 -18.867720 -27.208400 -19.246758 1.448866 -2.381497 -19.859497 10.493294 74.391866 61.432572 -106.200105 -76.466994 -0.620019 38.675588 -43.725488 20.884278 -1.975414 39.248620 28.334869 35.664502 
-118.833000 38.070511 119.273201 70.472615 16.034697 -165.094975 88.613952 -24.049514 -173.898679 -154.183297 3.766072 -4.362284 102.456102 2.274831 -5.075775 21.454543 0.003096 0.000001 96.052943 19.076003 -169.198785 -149.284808 -4.816433 2.944406 100.742101 -1.283372 2.580787 21.454545 -0.003107 -0.000017 17.977572 1.210218 1.196973 25.971494 2.121411 2.635004 25.653518 2.137413 2.622173 -2.498042 2.206283 -2.830713 -43.328323 10.998831 -9.449895 55.597757 -75.718316 123.547358 -61.683739 -13.628127 -20.957307 -27.186151 -18.556229 1.404600 0.684999 -23.834601 9.674398 73.778515 61.660974 -106.773226 -75.758266 0.973909 41.578937 -43.324242 21.384286 -1.996603 40.938583 26.623111 37.166201 
-120.785400 34.960339 121.751198 75.229199 13.107299 -161.510014 86.644085 -22.997498 -170.944007 -157.219808 3.349331 -3.450142 103.106213 1.717320 -4.633207 21.454538 0.003099 -0.000000 98.604818 19.984695 -171.064123 -153.785999 -4.441796 1.805879 106.819405 -0.537611 5.000628 21.454551 -0.003108 -0.000018 18.524156 0.890596 1.121204 27.053787 1.495053 2.419284 26.735879 1.509766 2.410238 -5.768990 0.319702 -3.765029 -42.605006 11.509900 -11.297002 61.408831 -75.692300 117.806065 -65.637162 -12.825311 -22.651066 -28.109360 -18.313769 1.405789 5.270711 -28.732106 7.794096 73.905782 61.476880 -106.665493 -73.788555 2.513894 43.560525 -41.806096 21.967382 -1.990989 38.977482 24.314237 35.873202 
-122.386902 32.608570 123.524399 79.120194 10.200103 -158.614013 86.350981 -22.444910 -166.974766 -158.779003 2.821736 -0.067281 105.196907 -0.462053 -4.924689 21.454560 0.003092 0.000004 102.095612 21.125201 -171.391959 -156.896904 -4.181806 1.715162 113.365998 -0.753483 6.151169 21.454553 -0.003108 -0.000017 18.971487 0.749233 1.149093 27.944684 1.199678 2.444778 27.626821 1.214543 2.437515 -7.877807 -1.163051 -4.648155 -42.097980 11.079326 -12.431247 67.619050 -75.352703 111.701966 -69.977897 -9.994405 -25.902270 -29.737520 -18.960643 1.477861 7.170113 -32.958501 8.171299 74.002292 61.161981 -106.598202 -71.236360 3.116420 44.570434 -39.401807 22.370125 -1.950466 34.178157 21.894579 33.205518 
-123.669998 31.260811 124.836601 81.235326 7.671096 -156.290041 86.535956 -22.982895 -167.294965 -159.036706 2.715121 1.291954 108.193304 -1.239246 -4.157316 21.454550 0.003093 -0.000002 104.100477 22.368699 -170.593728 -158.823304 -4.040200 2.819109 118.004809 -1.711839 6.322510 21.454567 -0.003108 -0.000017 19.085406 0.621244 1.127547 28.168935 0.950227 2.372091 27.851087 0.964664 2.366334 -8.803585 -1.130830 -5.251767 -41.836770 9.671541 -12.112461 69.209064 -74.931526 110.173595 -73.940336 -5.234707 -30.744246 -32.079698 -19.191904 1.540559 10.946701 -33.531697 4.364001 75.110368 61.120317 -105.532795 -68.704989 2.677827 44.037590 -36.785558 22.182103 -1.869660 27.591167 18.991872 29.021788 
-124.444199 31.187481 125.986900 82.516868 6.113906 -154.116949 86.540881 -24.219185 -170.242315 -158.050905 2.979130 0.668380 109.734905 -0.805937 -2.108841 21.454545 0.003098 -0.000000 104.810441 23.184401 -168.201331 -159.314600 -4.227208 4.708230 118.672898 -2.951027 6.285829 21.454557 -0.003109 -0.000018 19.080296 0.684020 1.056528 28.159886 1.091212 2.247409 27.841997 1.104893 2.240806 -9.561025 -0.973072 -5.532248 -41.266319 8.334894 -11.421033 71.514109 -75.032702 107.905514 -77.326450 -0.348446 -34.454370 -32.871918 -19.403647 1.571270 18.184482 -34.981599 -5.836500 75.724381 61.646835 -104.895812 -67.182417 0.798535 42.400633 -35.770469 21.811803 -1.820341 24.112881 16.766345 21.873698 
-124.856903 31.987089 126.927498 83.079026 5.467193 -152.155031 85.567210 -25.766212 -173.434663 -156.412097 3.272882 -0.401191 108.891998 -0.127456 0.734659 21.454551 0.003095 -0.000001 104.629967 23.712098 -165.793553 -158.690798 -4.493678 6.382604 117.049403 -3.947066 6.103580 21.454562 -0.003109 -0.000017 18.899904 0.827188 0.835897 27.800825 1.429959 1.845653 27.482810 1.441208 1.837009 -9.056634 0.067655 -5.046485 -41.266193 6.707620 -9.475178 73.666903 -74.560688 105.829601 -78.389972 5.044262 -37.921244 -33.258903 -19.950503 1.614971 20.974597 -33.287402 -9.835795 76.767959 62.514830 -103.813404 -67.133294 -2.743290 41.181430 -36.510028 21.589215 -1.824197 22.159345 16.340994 13.268803 
-125.116096 33.222820 127.663498 82.750091 4.798995 -150.567012 85.050041 -27.543595 -177.348867 -154.304396 3.648652 -1.212316 107.232310 0.448871 3.341790 21.454551 0.003098 -0.000001 104.430143 24.255100 -164.576167 -157.373897 -4.726247 7.333724 116.022593 -4.531877 6.121992 21.454557 -0.003108 -0.000017 18.612848 0.808284 0.454628 27.222306 1.487207 1.086259 26.904165 1.493869 1.077279 -8.240061 1.488565 -4.010089 -41.069948 5.367161 -6.988501 75.109282 -74.611429 104.409960 -78.607677 10.279345 -40.041687 -33.437314 -19.581649 1.595221 20.463593 -32.808308 -9.659702 78.701319 63.490222 -101.856200 -68.214827 -7.332195 40.198969 -37.602490 22.062903 -1.882758 20.417741 17.213451 6.518566 
-125.250397 34.555698 128.119400 81.794384 4.369204 -149.324956 84.967813 -29.122701 179.988571 -152.103696 3.846181 -0.580390 105.425404 0.138355 4.923886 21.454560 0.003093 -0.000001 103.918207 24.807689 -163.773784 -155.939694 -4.966605 8.261230 115.182398 -5.116734 6.140415 21.454557 -0.003109 -0.000018 18.203545 0.757055 0.108404 26.398946 1.469432 0.386314 26.080739 1.471864 0.377451 -7.186676 2.035874 -2.759106 -41.356249 4.348279 -4.867875 76.810204 -74.601881 102.740211 -78.571696 14.947835 -39.893759 -32.291929 -19.625703 1.572938 22.127509 -31.431305 -12.055301 80.575079 64.747127 -99.925688 -69.902014 -12.664856 40.911843 -38.737606 22.225514 -1.923143 19.560866 19.367227 1.697169 
-125.283401 35.802422 128.477997 80.941703 4.203705 -148.359003 85.133165 -30.598906 178.429690 -150.066414 3.922743 0.624503 104.010606 -0.532320 6.219694 21.454550 0.003088 0.000001 103.192752 24.962202 -163.156595 -154.590895 -5.224699 9.137047 113.701804 -5.652720 6.321383 21.454560 -0.003108 -0.000017 17.851418 0.735600 -0.154812 25.691236 1.487087 -0.142745 25.373017 1.486323 -0.151707 -6.260212 1.816467 -1.821715 -41.809101 3.423643 -3.420629 79.000256 -74.594962 100.588599 -78.204819 18.514143 -40.042834 -30.551310 -19.027437 1.498317 23.525203 -29.886903 -15.066193 82.315118 65.246810 -98.187255 -71.106641 -17.607748 41.965854 -38.426832 22.192292 -1.912729 18.755718 23.298701 -2.100072 
-125.239502 36.848068 128.732803 80.092308 4.236404 -147.769039 85.497603 -31.525110 177.186992 -148.428002 3.934498 1.395064 103.219608 -0.962342 6.789509 21.454550 0.003098 -0.000000 102.150745 24.562101 -163.230361 -153.520905 -5.353716 9.757210 111.840004 -6.017908 6.886289 21.454555 -0.003108 -0.000017 17.586224 0.672038 -0.295479 25.158788 1.392065 -0.438032 24.840592 1.389527 -0.446413 -7.291726 2.435168 -1.138919 -40.785310 2.092929 -1.576317 81.546318 -74.419323 98.099357 -77.500756 20.682801 -40.506198 -28.692204 -18.094269 1.402596 23.552999 -29.294702 -15.229401 83.540262 65.800567 -96.942541 -72.261585 -21.037240 42.313667 -36.179659 22.045474 -1.845593 19.019966 24.044755 -1.073682 
